# xmcd CD database file
#
# Track frame offsets:
#	150
#	16747
#	31487
#	47500
#	62307
#	78505
#	91572
#	105445
#	120935
#	135500
#	151172
#	168002
#	180472
#	196162
#	214460
#	229452
#	248265
#	259630
#	277200
#	278755
#	281140
#	282662
#	283897
#	285407
#	287922
#	290585
#	295830
#
# Disc length: 3983 seconds
#
# Revision: 1
# Processed by: cddbd v1.4PL0 Copyright (c) Steve Scherf et al.
# Submitted via: CDex 1.50beta9
#
DISCID=880f8d1b
DTITLE=Various Artist - CDX Volume 67 - Oct 1993
DYEAR=1993
DGENRE=Country
TTITLE0=Restless Heart - Big Iron Horses
TTITLE1=Wylie and The Wild West Show - Black Boots and Blue Jeans
TTITLE2=Dwight Yoakam - Fast As You
TTITLE3=Rhonda Vincent - I'm Not Over You
TTITLE4=Doug Stone - I Never Knew Love
TTITLE5=Clay Walker - Live Until I Die
TTITLE6=John Brannen - Lonesome Side of Midnight
TTITLE7=Charlie Chase - My Wife (narrative song)
TTITLE8=Twister Alley - Nothing In Common But Love
TTITLE9=Asleep At The Wheel - Red Wing
TTITLE10=Boy Howdy - She'd Give Anything
TTITLE11=Gene Watson - Snake In The House
TTITLE12=Sawyer Brown - The Boys and Me
TTITLE13=Aaron Tippin - The Call of the Wild
TTITLE14=Tracy Byrd - Why Don't That Telephone Ring
TTITLE15=Travis Tritt - Worth Every Mile
TTITLE16=J R Williams - Semi-Diesel Blues
TTITLE17=John Brannen - Lonesome Side of Midnight (DT)
TTITLE18=Jeff Foxworthy comedy spotlight
TTITLE19=Jeff Foxworthy comedy spotlight
TTITLE20=Jeff Foxworthy comedy spotlight
TTITLE21=Jeff Foxworthy comedy spotlight
TTITLE22=Jeff Foxworthy comedy spotlight
TTITLE23=Jeff Foxworthy comedy spotlight
TTITLE24=Jeff Foxworthy comedy spotlight
TTITLE25=Jeff Foxworthy comedy spotlight
TTITLE26=Jeff Foxworthy comedy spotlight
EXTD=YEAR: 1993
EXTT0=
EXTT1=
EXTT2=
EXTT3=
EXTT4=
EXTT5=
EXTT6=
EXTT7=
EXTT8=
EXTT9=
EXTT10=
EXTT11=
EXTT12=
EXTT13=
EXTT14=
EXTT15=
EXTT16=
EXTT17=
EXTT18=
EXTT19=
EXTT20=
EXTT21=
EXTT22=
EXTT23=
EXTT24=
EXTT25=
EXTT26=
PLAYORDER=
